<mxfile host="app.diagrams.net" agent="Mozilla/5.0 (Windows NT 10.0; Win64; x64) AppleWebKit/537.36 (KHTML, like Gecko) Chrome/135.0.0.0 Safari/537.36" version="26.2.14">
  <diagram id="0d7cefc2-ccd6-e077-73ed-a8e48b0cddf6" name="Page-1">
    <mxGraphModel dx="2005" dy="518" grid="1" gridSize="10" guides="1" tooltips="1" connect="1" arrows="1" fold="1" page="1" pageScale="1" pageWidth="1169" pageHeight="827" background="none" math="0" shadow="0">
      <root>
        <mxCell id="0" />
        <mxCell id="1" parent="0" />
        <mxCell id="62_SCqloEv6HuezcJXTB-110" value="" style="edgeStyle=orthogonalEdgeStyle;rounded=0;orthogonalLoop=1;jettySize=auto;html=1;" edge="1" parent="1" source="62_SCqloEv6HuezcJXTB-106" target="62_SCqloEv6HuezcJXTB-109">
          <mxGeometry relative="1" as="geometry" />
        </mxCell>
        <mxCell id="62_SCqloEv6HuezcJXTB-106" value="" style="image;aspect=fixed;perimeter=ellipsePerimeter;html=1;align=center;shadow=0;dashed=0;fontColor=#4277BB;labelBackgroundColor=default;fontSize=12;spacingTop=3;image=img/lib/ibm/social/live_collaboration.svg;" vertex="1" parent="1">
          <mxGeometry x="-1154" y="312" width="60" height="60" as="geometry" />
        </mxCell>
        <mxCell id="62_SCqloEv6HuezcJXTB-118" value="" style="edgeStyle=orthogonalEdgeStyle;rounded=0;orthogonalLoop=1;jettySize=auto;html=1;" edge="1" parent="1" source="62_SCqloEv6HuezcJXTB-109" target="62_SCqloEv6HuezcJXTB-117">
          <mxGeometry relative="1" as="geometry" />
        </mxCell>
        <mxCell id="62_SCqloEv6HuezcJXTB-109" value="Webhook" style="shape=delay;whiteSpace=wrap;html=1;fillColor=#dae8fc;strokeColor=#6c8ebf;gradientColor=#7BEDFF;" vertex="1" parent="1">
          <mxGeometry x="-1066" y="310" width="80" height="62" as="geometry" />
        </mxCell>
        <mxCell id="62_SCqloEv6HuezcJXTB-115" value="Start&amp;nbsp;&lt;div&gt;whatsapp&amp;nbsp;&lt;span style=&quot;background-color: transparent; color: light-dark(rgb(0, 0, 0), rgb(255, 255, 255));&quot;&gt;chat&lt;/span&gt;&lt;/div&gt;" style="text;html=1;align=center;verticalAlign=middle;whiteSpace=wrap;rounded=0;" vertex="1" parent="1">
          <mxGeometry x="-1169" y="384" width="90" height="30" as="geometry" />
        </mxCell>
        <mxCell id="62_SCqloEv6HuezcJXTB-120" value="" style="edgeStyle=orthogonalEdgeStyle;rounded=0;orthogonalLoop=1;jettySize=auto;html=1;" edge="1" parent="1" source="62_SCqloEv6HuezcJXTB-117">
          <mxGeometry relative="1" as="geometry">
            <mxPoint x="-354" y="210" as="targetPoint" />
            <Array as="points">
              <mxPoint x="-884" y="220" />
            </Array>
          </mxGeometry>
        </mxCell>
        <mxCell id="62_SCqloEv6HuezcJXTB-117" value="&lt;font style=&quot;font-size: 14px;&quot;&gt;Check media type&lt;br&gt;&lt;/font&gt;&lt;div&gt;&lt;br&gt;&lt;/div&gt;" style="rounded=1;whiteSpace=wrap;html=1;fillColor=#1ba1e2;fontColor=#ffffff;strokeColor=#006EAF;" vertex="1" parent="1">
          <mxGeometry x="-959" y="282" width="150" height="118" as="geometry" />
        </mxCell>
        <mxCell id="62_SCqloEv6HuezcJXTB-121" value="" style="edgeStyle=orthogonalEdgeStyle;rounded=0;orthogonalLoop=1;jettySize=auto;html=1;exitX=0.5;exitY=1;exitDx=0;exitDy=0;" edge="1" parent="1" source="62_SCqloEv6HuezcJXTB-117" target="62_SCqloEv6HuezcJXTB-114">
          <mxGeometry relative="1" as="geometry">
            <mxPoint x="-884" y="533" as="sourcePoint" />
            <mxPoint x="-764" y="470" as="targetPoint" />
            <Array as="points">
              <mxPoint x="-884" y="524" />
            </Array>
          </mxGeometry>
        </mxCell>
        <mxCell id="62_SCqloEv6HuezcJXTB-122" value="&lt;span style=&quot;text-wrap-mode: wrap;&quot;&gt;&lt;font style=&quot;color: rgb(0, 0, 0);&quot;&gt;Text&lt;/font&gt;&lt;/span&gt;" style="text;html=1;align=center;verticalAlign=middle;resizable=0;points=[];autosize=1;strokeColor=none;fillColor=none;" vertex="1" parent="1">
          <mxGeometry x="-879" y="195" width="50" height="30" as="geometry" />
        </mxCell>
        <mxCell id="62_SCqloEv6HuezcJXTB-123" value="&lt;span style=&quot;text-wrap-mode: wrap;&quot;&gt;&lt;font style=&quot;color: rgb(0, 0, 0);&quot;&gt;Voice&lt;/font&gt;&lt;/span&gt;" style="text;html=1;align=center;verticalAlign=middle;resizable=0;points=[];autosize=1;strokeColor=none;fillColor=none;" vertex="1" parent="1">
          <mxGeometry x="-879" y="440" width="50" height="30" as="geometry" />
        </mxCell>
        <mxCell id="62_SCqloEv6HuezcJXTB-134" value="" style="group" vertex="1" connectable="0" parent="1">
          <mxGeometry x="-764" y="327" width="784" height="273" as="geometry" />
        </mxCell>
        <mxCell id="62_SCqloEv6HuezcJXTB-114" value="" style="rounded=1;whiteSpace=wrap;html=1;strokeColor=#FFB366;strokeWidth=5;" vertex="1" parent="62_SCqloEv6HuezcJXTB-134">
          <mxGeometry y="60.5" width="300" height="273" as="geometry" />
        </mxCell>
        <mxCell id="62_SCqloEv6HuezcJXTB-132" value="" style="group" vertex="1" connectable="0" parent="62_SCqloEv6HuezcJXTB-134">
          <mxGeometry x="105" y="208" width="160" height="108" as="geometry" />
        </mxCell>
        <mxCell id="62_SCqloEv6HuezcJXTB-113" value="" style="rounded=1;whiteSpace=wrap;html=1;fillColor=default;strokeColor=#FFB366;fontColor=#ffffff;strokeWidth=4;" vertex="1" parent="62_SCqloEv6HuezcJXTB-132">
          <mxGeometry width="160" height="108" as="geometry" />
        </mxCell>
        <mxCell id="62_SCqloEv6HuezcJXTB-125" value="" style="image;aspect=fixed;perimeter=ellipsePerimeter;html=1;align=center;shadow=0;dashed=0;fontColor=#4277BB;labelBackgroundColor=default;fontSize=12;spacingTop=3;image=img/lib/ibm/data/caches.svg;" vertex="1" parent="62_SCqloEv6HuezcJXTB-132">
          <mxGeometry x="50" y="10" width="60" height="60" as="geometry" />
        </mxCell>
        <mxCell id="62_SCqloEv6HuezcJXTB-155" value="Convert voice to text" style="text;html=1;align=center;verticalAlign=middle;whiteSpace=wrap;rounded=0;" vertex="1" parent="62_SCqloEv6HuezcJXTB-132">
          <mxGeometry x="20" y="70" width="120" height="30" as="geometry" />
        </mxCell>
        <mxCell id="62_SCqloEv6HuezcJXTB-133" value="" style="group" vertex="1" connectable="0" parent="62_SCqloEv6HuezcJXTB-134">
          <mxGeometry x="25" y="87" width="160" height="108" as="geometry" />
        </mxCell>
        <mxCell id="62_SCqloEv6HuezcJXTB-127" value="" style="rounded=1;whiteSpace=wrap;html=1;fillColor=default;strokeColor=#FFB366;fontColor=#ffffff;strokeWidth=4;" vertex="1" parent="62_SCqloEv6HuezcJXTB-133">
          <mxGeometry width="160" height="108" as="geometry" />
        </mxCell>
        <mxCell id="62_SCqloEv6HuezcJXTB-131" value="" style="sketch=0;points=[[0,0,0],[0.25,0,0],[0.5,0,0],[0.75,0,0],[1,0,0],[0,1,0],[0.25,1,0],[0.5,1,0],[0.75,1,0],[1,1,0],[0,0.25,0],[0,0.5,0],[0,0.75,0],[1,0.25,0],[1,0.5,0],[1,0.75,0]];outlineConnect=0;fontColor=#232F3E;fillColor=#ED7100;strokeColor=#ffffff;dashed=0;verticalLabelPosition=bottom;verticalAlign=top;align=center;html=1;fontSize=12;fontStyle=0;aspect=fixed;shape=mxgraph.aws4.resourceIcon;resIcon=mxgraph.aws4.compute_optimizer;" vertex="1" parent="62_SCqloEv6HuezcJXTB-133">
          <mxGeometry x="45" y="11" width="60" height="60" as="geometry" />
        </mxCell>
        <mxCell id="62_SCqloEv6HuezcJXTB-151" value="&lt;b&gt;Conversion Agent&lt;/b&gt;" style="text;html=1;align=center;verticalAlign=middle;whiteSpace=wrap;rounded=0;" vertex="1" parent="62_SCqloEv6HuezcJXTB-133">
          <mxGeometry x="22" y="71" width="116" height="30" as="geometry" />
        </mxCell>
        <mxCell id="62_SCqloEv6HuezcJXTB-147" value="Text" style="text;html=1;align=center;verticalAlign=middle;whiteSpace=wrap;rounded=0;" vertex="1" parent="62_SCqloEv6HuezcJXTB-134">
          <mxGeometry x="324" y="173" width="60" height="30" as="geometry" />
        </mxCell>
        <mxCell id="62_SCqloEv6HuezcJXTB-135" value="" style="endArrow=classic;html=1;rounded=0;entryX=0.781;entryY=0;entryDx=0;entryDy=0;entryPerimeter=0;" edge="1" parent="62_SCqloEv6HuezcJXTB-134">
          <mxGeometry width="50" height="50" relative="1" as="geometry">
            <mxPoint x="185" y="138" as="sourcePoint" />
            <mxPoint x="234.96000000000004" y="208" as="targetPoint" />
            <Array as="points">
              <mxPoint x="235" y="138" />
            </Array>
          </mxGeometry>
        </mxCell>
        <mxCell id="62_SCqloEv6HuezcJXTB-154" value="&lt;b&gt;LLM&lt;/b&gt;" style="text;html=1;align=center;verticalAlign=middle;whiteSpace=wrap;rounded=0;" vertex="1" parent="62_SCqloEv6HuezcJXTB-134">
          <mxGeometry x="47" y="253" width="60" height="30" as="geometry" />
        </mxCell>
        <mxCell id="62_SCqloEv6HuezcJXTB-157" value="" style="edgeStyle=orthogonalEdgeStyle;rounded=0;orthogonalLoop=1;jettySize=auto;html=1;" edge="1" parent="1" source="62_SCqloEv6HuezcJXTB-136" target="62_SCqloEv6HuezcJXTB-156">
          <mxGeometry relative="1" as="geometry" />
        </mxCell>
        <mxCell id="62_SCqloEv6HuezcJXTB-136" value="" style="rounded=1;whiteSpace=wrap;html=1;strokeColor=#FFB366;strokeWidth=5;" vertex="1" parent="1">
          <mxGeometry x="-540" y="30" width="420" height="320" as="geometry" />
        </mxCell>
        <mxCell id="62_SCqloEv6HuezcJXTB-137" value="" style="group" vertex="1" connectable="0" parent="1">
          <mxGeometry x="-310" y="192.5" width="161.245" height="130" as="geometry" />
        </mxCell>
        <mxCell id="62_SCqloEv6HuezcJXTB-138" value="" style="rounded=1;whiteSpace=wrap;html=1;fillColor=default;strokeColor=#FFB366;fontColor=#ffffff;strokeWidth=4;" vertex="1" parent="62_SCqloEv6HuezcJXTB-137">
          <mxGeometry width="160" height="130" as="geometry" />
        </mxCell>
        <mxCell id="62_SCqloEv6HuezcJXTB-139" value="" style="image;aspect=fixed;perimeter=ellipsePerimeter;html=1;align=center;shadow=0;dashed=0;fontColor=#4277BB;labelBackgroundColor=default;fontSize=12;spacingTop=3;image=img/lib/ibm/data/caches.svg;" vertex="1" parent="62_SCqloEv6HuezcJXTB-137">
          <mxGeometry x="50" y="10" width="60" height="60" as="geometry" />
        </mxCell>
        <mxCell id="62_SCqloEv6HuezcJXTB-152" value="Translate to english and extract color, material and quality from query string" style="text;html=1;align=center;verticalAlign=middle;whiteSpace=wrap;rounded=0;" vertex="1" parent="62_SCqloEv6HuezcJXTB-137">
          <mxGeometry x="-0.0049999999999954525" y="76.33000000000004" width="161.25" height="36.66666666666667" as="geometry" />
        </mxCell>
        <mxCell id="62_SCqloEv6HuezcJXTB-141" value="" style="group" vertex="1" connectable="0" parent="1">
          <mxGeometry x="-515" y="48" width="215" height="132" as="geometry" />
        </mxCell>
        <mxCell id="62_SCqloEv6HuezcJXTB-142" value="" style="rounded=1;whiteSpace=wrap;html=1;fillColor=default;strokeColor=#FFB366;fontColor=#ffffff;strokeWidth=4;" vertex="1" parent="62_SCqloEv6HuezcJXTB-141">
          <mxGeometry width="215" height="132" as="geometry" />
        </mxCell>
        <mxCell id="62_SCqloEv6HuezcJXTB-144" value="" style="sketch=0;points=[[0,0,0],[0.25,0,0],[0.5,0,0],[0.75,0,0],[1,0,0],[0,1,0],[0.25,1,0],[0.5,1,0],[0.75,1,0],[1,1,0],[0,0.25,0],[0,0.5,0],[0,0.75,0],[1,0.25,0],[1,0.5,0],[1,0.75,0]];outlineConnect=0;fontColor=#232F3E;fillColor=#ED7100;strokeColor=#ffffff;dashed=0;verticalLabelPosition=bottom;verticalAlign=top;align=center;html=1;fontSize=12;fontStyle=0;aspect=fixed;shape=mxgraph.aws4.resourceIcon;resIcon=mxgraph.aws4.compute_optimizer;" vertex="1" parent="62_SCqloEv6HuezcJXTB-141">
          <mxGeometry x="70.82875" y="18.66444444444445" width="73.33333333333334" height="73.33333333333334" as="geometry" />
        </mxCell>
        <mxCell id="62_SCqloEv6HuezcJXTB-150" value="&lt;b&gt;Recipient Agent&lt;/b&gt;" style="text;html=1;align=center;verticalAlign=middle;whiteSpace=wrap;rounded=0;" vertex="1" parent="62_SCqloEv6HuezcJXTB-141">
          <mxGeometry x="57.5" y="92" width="100" height="30" as="geometry" />
        </mxCell>
        <mxCell id="62_SCqloEv6HuezcJXTB-146" value="" style="edgeStyle=orthogonalEdgeStyle;rounded=0;orthogonalLoop=1;jettySize=auto;html=1;entryX=0.59;entryY=1.006;entryDx=0;entryDy=0;entryPerimeter=0;" edge="1" parent="1" source="62_SCqloEv6HuezcJXTB-114" target="62_SCqloEv6HuezcJXTB-136">
          <mxGeometry relative="1" as="geometry">
            <mxPoint x="-234" y="463.5" as="targetPoint" />
            <Array as="points">
              <mxPoint x="-292" y="530" />
            </Array>
          </mxGeometry>
        </mxCell>
        <mxCell id="62_SCqloEv6HuezcJXTB-153" value="" style="edgeStyle=orthogonalEdgeStyle;rounded=0;orthogonalLoop=1;jettySize=auto;html=1;exitX=1.006;exitY=0.399;exitDx=0;exitDy=0;exitPerimeter=0;" edge="1" parent="1" source="62_SCqloEv6HuezcJXTB-142">
          <mxGeometry relative="1" as="geometry">
            <mxPoint x="-290" y="100" as="sourcePoint" />
            <mxPoint x="-230" y="192.5" as="targetPoint" />
            <Array as="points">
              <mxPoint x="-230" y="101" />
            </Array>
          </mxGeometry>
        </mxCell>
        <mxCell id="62_SCqloEv6HuezcJXTB-140" value="&lt;b&gt;LLM&lt;/b&gt;" style="text;html=1;align=center;verticalAlign=middle;whiteSpace=wrap;rounded=0;" vertex="1" parent="1">
          <mxGeometry x="-400" y="260" width="60" height="30" as="geometry" />
        </mxCell>
        <mxCell id="62_SCqloEv6HuezcJXTB-159" value="" style="edgeStyle=orthogonalEdgeStyle;rounded=0;orthogonalLoop=1;jettySize=auto;html=1;" edge="1" parent="1" source="62_SCqloEv6HuezcJXTB-156" target="62_SCqloEv6HuezcJXTB-158">
          <mxGeometry relative="1" as="geometry" />
        </mxCell>
        <mxCell id="62_SCqloEv6HuezcJXTB-156" value="Validate&amp;nbsp;" style="html=1;whiteSpace=wrap;aspect=fixed;shape=isoRectangle;fillColor=#a20025;fontColor=#ffffff;strokeColor=#6F0000;" vertex="1" parent="1">
          <mxGeometry x="-40" y="145" width="150" height="90" as="geometry" />
        </mxCell>
        <mxCell id="62_SCqloEv6HuezcJXTB-162" value="" style="edgeStyle=orthogonalEdgeStyle;rounded=0;orthogonalLoop=1;jettySize=auto;html=1;" edge="1" parent="1" source="62_SCqloEv6HuezcJXTB-158" target="62_SCqloEv6HuezcJXTB-161">
          <mxGeometry relative="1" as="geometry" />
        </mxCell>
        <mxCell id="62_SCqloEv6HuezcJXTB-158" value="Prepare JSON format and prepare database query" style="rounded=1;whiteSpace=wrap;html=1;strokeColor=#66B2FF;strokeWidth=3;" vertex="1" parent="1">
          <mxGeometry x="160" y="155" width="140" height="70" as="geometry" />
        </mxCell>
        <mxCell id="62_SCqloEv6HuezcJXTB-176" value="" style="edgeStyle=orthogonalEdgeStyle;rounded=0;orthogonalLoop=1;jettySize=auto;html=1;" edge="1" parent="1" source="62_SCqloEv6HuezcJXTB-161" target="62_SCqloEv6HuezcJXTB-175">
          <mxGeometry relative="1" as="geometry" />
        </mxCell>
        <mxCell id="62_SCqloEv6HuezcJXTB-161" value="Pricing Database" style="html=1;verticalLabelPosition=bottom;align=center;labelBackgroundColor=#ffffff;verticalAlign=top;strokeWidth=2;strokeColor=#0080F0;shadow=0;dashed=0;shape=mxgraph.ios7.icons.data;" vertex="1" parent="1">
          <mxGeometry x="360" y="137.5" width="84" height="105" as="geometry" />
        </mxCell>
        <mxCell id="62_SCqloEv6HuezcJXTB-183" value="" style="edgeStyle=orthogonalEdgeStyle;rounded=0;orthogonalLoop=1;jettySize=auto;html=1;" edge="1" parent="1" source="62_SCqloEv6HuezcJXTB-165" target="62_SCqloEv6HuezcJXTB-182">
          <mxGeometry relative="1" as="geometry">
            <Array as="points">
              <mxPoint x="834" y="580" />
              <mxPoint x="834" y="580" />
            </Array>
          </mxGeometry>
        </mxCell>
        <mxCell id="62_SCqloEv6HuezcJXTB-165" value="" style="rounded=1;whiteSpace=wrap;html=1;strokeColor=#FFB366;strokeWidth=5;" vertex="1" parent="1">
          <mxGeometry x="620" y="254" width="420" height="320" as="geometry" />
        </mxCell>
        <mxCell id="62_SCqloEv6HuezcJXTB-166" value="" style="group" vertex="1" connectable="0" parent="1">
          <mxGeometry x="850" y="422.5" width="161.245" height="130" as="geometry" />
        </mxCell>
        <mxCell id="62_SCqloEv6HuezcJXTB-167" value="" style="rounded=1;whiteSpace=wrap;html=1;fillColor=default;strokeColor=#FFB366;fontColor=#ffffff;strokeWidth=4;" vertex="1" parent="62_SCqloEv6HuezcJXTB-166">
          <mxGeometry width="160" height="130" as="geometry" />
        </mxCell>
        <mxCell id="62_SCqloEv6HuezcJXTB-168" value="" style="image;aspect=fixed;perimeter=ellipsePerimeter;html=1;align=center;shadow=0;dashed=0;fontColor=#4277BB;labelBackgroundColor=default;fontSize=12;spacingTop=3;image=img/lib/ibm/data/caches.svg;" vertex="1" parent="62_SCqloEv6HuezcJXTB-166">
          <mxGeometry x="50" y="10" width="60" height="60" as="geometry" />
        </mxCell>
        <mxCell id="62_SCqloEv6HuezcJXTB-169" value="Format JSON output to human readable format" style="text;html=1;align=center;verticalAlign=middle;whiteSpace=wrap;rounded=0;" vertex="1" parent="62_SCqloEv6HuezcJXTB-166">
          <mxGeometry x="-0.0049999999999954525" y="76.33000000000004" width="161.25" height="36.66666666666667" as="geometry" />
        </mxCell>
        <mxCell id="62_SCqloEv6HuezcJXTB-170" value="" style="group" vertex="1" connectable="0" parent="1">
          <mxGeometry x="645" y="278" width="215" height="132" as="geometry" />
        </mxCell>
        <mxCell id="62_SCqloEv6HuezcJXTB-171" value="" style="rounded=1;whiteSpace=wrap;html=1;fillColor=default;strokeColor=#FFB366;fontColor=#ffffff;strokeWidth=4;" vertex="1" parent="62_SCqloEv6HuezcJXTB-170">
          <mxGeometry width="215" height="132" as="geometry" />
        </mxCell>
        <mxCell id="62_SCqloEv6HuezcJXTB-172" value="" style="sketch=0;points=[[0,0,0],[0.25,0,0],[0.5,0,0],[0.75,0,0],[1,0,0],[0,1,0],[0.25,1,0],[0.5,1,0],[0.75,1,0],[1,1,0],[0,0.25,0],[0,0.5,0],[0,0.75,0],[1,0.25,0],[1,0.5,0],[1,0.75,0]];outlineConnect=0;fontColor=#232F3E;fillColor=#ED7100;strokeColor=#ffffff;dashed=0;verticalLabelPosition=bottom;verticalAlign=top;align=center;html=1;fontSize=12;fontStyle=0;aspect=fixed;shape=mxgraph.aws4.resourceIcon;resIcon=mxgraph.aws4.compute_optimizer;" vertex="1" parent="62_SCqloEv6HuezcJXTB-170">
          <mxGeometry x="70.82875" y="18.66444444444445" width="73.33333333333334" height="73.33333333333334" as="geometry" />
        </mxCell>
        <mxCell id="62_SCqloEv6HuezcJXTB-173" value="&lt;b&gt;Recipient Agent&lt;/b&gt;" style="text;html=1;align=center;verticalAlign=middle;whiteSpace=wrap;rounded=0;" vertex="1" parent="62_SCqloEv6HuezcJXTB-170">
          <mxGeometry x="57.5" y="92" width="100" height="30" as="geometry" />
        </mxCell>
        <mxCell id="62_SCqloEv6HuezcJXTB-174" value="" style="edgeStyle=orthogonalEdgeStyle;rounded=0;orthogonalLoop=1;jettySize=auto;html=1;exitX=1.006;exitY=0.399;exitDx=0;exitDy=0;exitPerimeter=0;" edge="1" parent="1" source="62_SCqloEv6HuezcJXTB-171">
          <mxGeometry relative="1" as="geometry">
            <mxPoint x="870" y="330" as="sourcePoint" />
            <mxPoint x="930" y="422.5" as="targetPoint" />
            <Array as="points">
              <mxPoint x="930" y="331" />
            </Array>
          </mxGeometry>
        </mxCell>
        <mxCell id="62_SCqloEv6HuezcJXTB-178" value="" style="edgeStyle=orthogonalEdgeStyle;rounded=0;orthogonalLoop=1;jettySize=auto;html=1;entryX=0.488;entryY=-0.008;entryDx=0;entryDy=0;entryPerimeter=0;" edge="1" parent="1" source="62_SCqloEv6HuezcJXTB-175" target="62_SCqloEv6HuezcJXTB-165">
          <mxGeometry relative="1" as="geometry">
            <mxPoint x="820" y="240" as="targetPoint" />
            <Array as="points">
              <mxPoint x="825" y="190" />
            </Array>
          </mxGeometry>
        </mxCell>
        <mxCell id="62_SCqloEv6HuezcJXTB-175" value="Fetch respective data from database" style="rounded=1;whiteSpace=wrap;html=1;strokeColor=#66B2FF;strokeWidth=3;" vertex="1" parent="1">
          <mxGeometry x="520" y="155" width="140" height="70" as="geometry" />
        </mxCell>
        <mxCell id="62_SCqloEv6HuezcJXTB-188" value="" style="edgeStyle=orthogonalEdgeStyle;rounded=0;orthogonalLoop=1;jettySize=auto;html=1;entryX=0.5;entryY=1;entryDx=0;entryDy=0;" edge="1" parent="1" source="62_SCqloEv6HuezcJXTB-180" target="62_SCqloEv6HuezcJXTB-115">
          <mxGeometry relative="1" as="geometry">
            <mxPoint x="390" y="687.5" as="targetPoint" />
          </mxGeometry>
        </mxCell>
        <mxCell id="62_SCqloEv6HuezcJXTB-180" value="Send response back to respective channel/user" style="rounded=1;whiteSpace=wrap;html=1;strokeColor=#66B2FF;strokeWidth=3;" vertex="1" parent="1">
          <mxGeometry x="540" y="652.5" width="140" height="70" as="geometry" />
        </mxCell>
        <mxCell id="62_SCqloEv6HuezcJXTB-185" value="" style="edgeStyle=orthogonalEdgeStyle;rounded=0;orthogonalLoop=1;jettySize=auto;html=1;entryX=1;entryY=0.5;entryDx=0;entryDy=0;" edge="1" parent="1" source="62_SCqloEv6HuezcJXTB-182" target="62_SCqloEv6HuezcJXTB-180">
          <mxGeometry relative="1" as="geometry">
            <mxPoint x="690" y="688" as="targetPoint" />
          </mxGeometry>
        </mxCell>
        <mxCell id="62_SCqloEv6HuezcJXTB-182" value="&lt;span&gt;&lt;font style=&quot;color: rgb(255, 255, 255);&quot;&gt;Check response channel&amp;nbsp;&lt;/font&gt;&lt;/span&gt;&lt;div style=&quot;color: rgb(0, 0, 0);&quot;&gt;&lt;font style=&quot;color: rgb(255, 255, 255);&quot;&gt;Text/ Voice&lt;/font&gt;&lt;/div&gt;" style="html=1;whiteSpace=wrap;aspect=fixed;shape=isoRectangle;fillColor=#a20025;fontColor=#ffffff;strokeColor=#6F0000;" vertex="1" parent="1">
          <mxGeometry x="730" y="625" width="208.33" height="125" as="geometry" />
        </mxCell>
      </root>
    </mxGraphModel>
  </diagram>
</mxfile>
